<svg width="512" height="512" viewBox="0 0 512 512" fill="none" xmlns="http://www.w3.org/2000/svg">
<path fill-rule="evenodd" clip-rule="evenodd" d="M154.8 109.1C162 96.7999 170 95.6999 178.4 99.6999C195 107.9 211.5 116.2 228.1 124.4C238.2 129.4 258.2 111 260.7 89.8999C334.1 85.8999 407.5 81.8999 480.9 77.8999C473.9 84.8999 467 91.8999 460 98.8999C457 99.0999 454 99.1999 450.9 99.3999C453.3 99.8999 455.8 100.4 458.2 100.8C447.8 109.8 437.1 118.7 422.9 126.3C390.4 122.9 358 119.4 325.5 116C357.3 119.9 388 124.4 419.8 128.2C406 136.7 392 143.3 376.6 150C355.4 142.8 334.2 135.6 312.9 128.4C333.5 135.9 353 144.1 373.6 151.6C360.2 157.3 348.4 161.5 332.7 166.8C319.5 157.5 305 149 291.8 139.8C304.2 149.4 316.7 159 329.1 168.6C298.2 156.8 271.3 158 249.8 176.5C259.8 193.7 269.8 210.8 279.8 228C285 224.3 290.3 220.6 295.5 216.9C297.2 216.7 298.9 216.5 300.6 216.3C299.2 210.1 298.1 203.8 314 194.9C310.7 199.8 308.4 205 309.2 209C310.6 206.4 312.4 203.1 313.8 200.5C317.9 207.1 316.9 213.3 313.5 219.2C314.8 226.6 311.4 231.8 308.3 237.3C309.9 236.2 311.4 235.2 313 234.1C314.8 236.6 316.6 239 318.3 241.5C311.1 246.9 304 252.3 296.8 257.6C307.3 276.3 318.5 294.9 329.4 313.5C332.4 318.7 335.4 323.9 338.3 329.2C340.3 330.8 342.4 332.3 344.5 333.8C383.7 360.3 432.2 351.9 432.3 303.4C432 260.8 431.8 218.9 431.5 176.3C440.9 176.5 450.4 176.1 459.8 176.3C459.9 220 460 263.6 460.1 307.3C464 367.5 400.3 391.5 347.4 362.7C292.9 329.3 249.7 321.3 172.1 344.3C42.9 392.5 54.9 419.9 31 434.1C65 375.4 99.1 316.6 133.1 257.9C125.9 252.9 118.6 248 111.4 243C113.2 240 115.1 237 116.9 234C119.4 235.6 122 237.1 124.5 238.7C117.9 232.7 116.6 226.5 117.6 220.1C112.8 214.5 113.7 207.6 116.8 200.2C118.3 204.1 119.9 206.6 121.5 208.4C121.7 203.7 119.6 199.2 116.2 194.9C126.2 199.8 133.1 206 130.4 216.5C131.5 216.4 132.5 216.5 133.5 217C137.1 218.6 146.9 225.7 150.7 228C162.5 207.5 174.3 187.1 185.3 165.8C188.9 157 187.2 147.6 177 144.7C163.2 140.8 150.9 137.5 137.9 129.7C145 130.2 152.4 130.3 159.4 130.8C148.7 123.5 140.8 115.8 130.1 120.8C132.4 117 134.7 113.1 136.9 109.3C141.2 102.3 148.6 107.4 154.8 109.1ZM180.5 110.5C178.1 109.9 166.9 106.7 165.3 107.3C164.6 107.6 164.4 108.2 164.6 109.1C165.4 112.7 177.2 110.8 180.5 110.5ZM126.5 235.7C125.7 233.7 125.5 231.5 126.3 228.6C129.9 232.7 129.5 236.9 126.7 241.2C126.4 239.6 127.8 238.9 126.5 235.7ZM231.3 306.8C216.5 308.3 202.1 310.1 188.2 313.2C197.1 307.7 206 302.2 214.9 296.8C220.3 300 225.8 303.6 231.3 306.8ZM158 267.4C143.8 291.9 129.7 316.4 115.5 340.9C135.9 329.8 158.1 320.9 182.2 314.4C190.8 307.4 199.4 300.4 208 293.5C190.7 283.1 173.9 274 158 267.4ZM238.5 306.8C233.2 302.3 227.9 297.8 222.6 293.3C238.6 283.5 255.1 274.6 272.3 266.6C282 284.3 291.8 301.7 302.1 317.8C280.8 309.7 259.6 305.9 238.5 306.8ZM178.1 233C182.1 230.5 184.8 227.5 184.2 222.1C194.4 204.1 204.7 186 214.9 168C225.4 185.8 235.8 203.5 246.3 221.3C246.4 223 246.4 224.8 246.5 226.5C246.7 227.2 247 227.9 247.2 228.6C249 230 250.7 231.5 252.5 232.9C251.7 234.2 250.9 235.5 250 236.9C249.6 236.8 249.2 236.8 248.8 236.7C248.9 231.4 246.6 228.6 243.1 227.1C241.4 231.7 242.1 236.1 247 240C245.9 241.5 244.8 243 243.7 244.5C244 238.9 242.3 235.4 239.7 233.3C236.4 237 236.3 241.5 240.3 247.2C238.7 248.4 237 249.7 235.4 250.9C237.8 245.9 237.5 242 235.2 238.9C231.2 241.6 230.3 246.5 231.1 252.7C224.6 236.4 207.4 235.3 199.4 251.4C201 245.7 199.4 241.6 195.8 238.5C193.5 242.9 193.2 246.9 195.4 250.6C193.7 249.5 192.1 248.4 190.4 247.2C194.1 242.1 194.5 237.4 190.6 233.2C188.1 236.2 186.5 239.6 187 244.2C185.8 242.9 184.6 241.5 183.3 240.2C187.7 237 189 232.6 188.1 227.3C184.3 228.5 182.2 232 181 236.9C180.1 235.9 178.9 234.3 178.1 233ZM173.1 248.7C176 245.5 180 244.5 184.7 245.2C183.5 243.9 182.3 242.6 181.1 241.3C178 244.3 174.9 244.5 171.7 243.6C170.8 245.2 169.9 246.8 169 248.5C184.4 261.7 199.8 274.9 215.2 288.1C230.5 274.6 245.8 261.2 261.1 247.7C259.2 241 253 245.4 249.2 241.3C248.1 242.5 247 243.7 245.9 244.9C251 244.3 254.7 245.9 257.5 248.9C253 253.3 247.3 253 240.6 249.5C239.2 250.7 237.8 251.9 236.5 253.1C241.8 251.8 245.1 254.1 247 258.7C241.1 262 236.5 260.6 233.1 255C231.8 254.7 231 255.4 230.3 256.2C229 259.8 234.6 261.8 232.9 265.2C231.1 265.9 229.4 265.2 227.6 264C223.3 270.9 211.4 273.9 202.2 264.7C201 265.2 199.7 265.8 197 265.8C196.9 262.8 197.8 260.8 199.5 259.6C199.5 258.3 199.5 256.9 199.5 255.6C198.7 255.2 198 254.8 197.2 254.4C193.8 261 188.9 260.9 183.6 259C184.8 254.8 188.1 252.5 193.5 252.4C192.2 251.4 191 250.4 189.7 249.4C182.7 253.3 177 253.5 173.1 248.7ZM304.7 235.7C305.5 233.7 305.7 231.5 304.9 228.6C301.3 232.7 301.7 236.9 304.5 241.2C304.7 239.6 303.4 238.9 304.7 235.7ZM79.1 405.3L68.4 404.7L58.3 424.2H100L85.1 394.4H73.7L79.1 405.3ZM79.1 405.3C77.9 407.1 73.3 414.8 72.8 416.7H85.4C85.5 416.6 79.1 405.3 79.1 405.3ZM290.4 424.2H322V416.6H301.2V412.2H322V405.3H301.2V400.2H322V393.3H290.5L290.4 424.2ZM203.4 424.2H214.2L214.1 401.5C226.1 401.5 223.6 398.9 223.6 424.2H234.9V404.7C234.9 398.3 228.7 393.4 222.3 393.4H203.3L203.4 424.2ZM168.7 414.7C168.7 421.4 173.3 424.2 180 424.2H200.2V393.3H189.5V416C182.6 416 179.4 417 179.4 414.1V393.3H168.7V414.7ZM265.2 424.2C277.3 424.2 274.1 425.5 277.4 417.5C279.4 412.7 287 396 287.2 393.3H276.5C275.8 396.4 274.3 399.4 273.1 402.5C271.8 405.8 270.4 408.7 269.6 412.2C269.5 412.1 269.4 411.7 269.4 411.8C269.4 411.9 269.2 411.5 269.2 411.4L261.5 393.3H251.4C252.5 397.9 258.6 411.3 261 417.2C261.6 419 262.9 424.2 265.2 424.2ZM359.2 397.1C359.2 408 367 405.7 372.6 410.8C374.7 412.7 374.8 413.6 374.3 416H359.1V424.2C368 424.2 377.1 425.6 382.2 421.5C385.9 418.5 387.9 410.3 380.8 405.7C379.2 404.6 378.2 404.1 376.3 403.2C373.2 401.8 372.6 402.8 372.3 399.6H385.5V393.3H365.3C362.6 393.3 359.2 394.5 359.2 397.1ZM439.9 411.6V424.2H450.6C450.6 400.7 451.1 412.5 461.3 393.3H450.6C449.7 396.6 447 397.9 446.2 401.5C440.8 397.9 444.2 393.2 436.2 393.3C434.1 393.3 432 393.3 429.9 393.3C430.9 398.1 439.9 407.7 439.9 411.6ZM400.8 395.2V400.2H409V424.2H419.1V400.2H427.3V393.3H402.7C401.2 393.3 400.8 393.7 400.8 395.2ZM101.9 424.2H112.7V393.3H102L101.9 424.2ZM388.2 424.2H398.9V393.3H388.2V424.2ZM238.1 424.2H248.8V393.3H238.1V424.2ZM324.7 424.2H333.6L333.5 412.6H333.3V412.3C335.2 412.3 338 412.3 338.3 412.3C344.9 412.8 345.6 415 345.6 424.2H356.4C356.2 413.9 356.3 416.3 351.9 409.7C360.2 404.1 354.9 393.3 341.8 393.3H333.4H329H324.6L324.7 424.2ZM333.3 403.8V400.2H343.3C344.3 400.2 345.1 401 345.1 402C345.1 403 344.3 403.8 343.3 403.8H333.3ZM213.3 254.6L216.3 251.8L214.6 248.1L218.2 250.1L221.2 247.3L220.4 251.3L224 253.3L219.9 253.8L219.1 257.8L217.3 254.1L213.3 254.6ZM223.7 257.9C223.5 258.9 223.3 259.5 223.2 259.8C222.7 261.1 221.9 262.3 220.8 263.3C218.9 265.1 216.6 266 213.9 265.9C211.2 265.8 209 264.8 207.2 262.9C205.4 260.9 204.5 258.7 204.6 256C204.7 253.3 205.7 251.1 207.7 249.3C209.1 247.9 211 247.1 213.2 246.8L210.4 248.5C208.7 250.1 207.8 252 207.8 254.3C207.7 256.6 208.5 258.6 210.1 260.3C211.7 262 213.6 262.8 215.9 262.9C218.2 263 220.2 262.2 221.8 260.7L223.7 257.9ZM115.1 424.2H124L123.9 412.6H123.7V412.3C125.6 412.3 128.4 412.3 128.7 412.3C135.3 412.8 136 415 136 424.2H146.8C146.6 413.9 146.7 416.3 142.3 409.7C150.6 404.1 145.3 393.3 132.2 393.3H123.8H119.6H115.2L115.1 424.2ZM123.7 403.8V400.2H133.7C134.7 400.2 135.5 401 135.5 402C135.5 403 134.7 403.8 133.7 403.8H123.7Z" fill="#2B2B2A"/>
</svg>
